<?xml version="1.0" encoding="UTF-8" standalone="no"?>
<!-- Created with Inkscape (http://www.inkscape.org/) -->

<svg
   width="100"
   height="100"
   viewBox="0 0 26.458332 26.458333"
   version="1.1"
   id="svg1"
   inkscape:version="1.3 (0e150ed6c4, 2023-07-21)"
   sodipodi:docname="drawing.svg"
   xmlns:inkscape="http://www.inkscape.org/namespaces/inkscape"
   xmlns:sodipodi="http://sodipodi.sourceforge.net/DTD/sodipodi-0.dtd"
   xmlns="http://www.w3.org/2000/svg"
   xmlns:svg="http://www.w3.org/2000/svg">
  <sodipodi:namedview
     id="namedview1"
     pagecolor="#ffffff"
     bordercolor="#000000"
     borderopacity="0.25"
     inkscape:showpageshadow="2"
     inkscape:pageopacity="0.0"
     inkscape:pagecheckerboard="0"
     inkscape:deskcolor="#d1d1d1"
     inkscape:document-units="mm"
     inkscape:zoom="5.7941077"
     inkscape:cx="51.43156"
     inkscape:cy="53.761514"
     inkscape:window-width="1600"
     inkscape:window-height="829"
     inkscape:window-x="-8"
     inkscape:window-y="-8"
     inkscape:window-maximized="1"
     inkscape:current-layer="layer1" />
  <defs
     id="defs1">
    <inkscape:path-effect
       effect="fillet_chamfer"
       id="path-effect37"
       is_visible="true"
       lpeversion="1"
       nodesatellites_param="F,0,0,1,0,0,0,1 @ F,0,0,1,0,0,0,1 @ F,0,0,1,0,0,0,1 @ F,0,0,1,0,0,0,1 @ F,0,0,1,0,0,0,1 @ F,0,0,1,0,0,0,1 @ F,0,0,1,0,0,0,1 @ F,0,0,1,0,0,0,1 @ F,0,0,1,0,0,0,1 @ F,0,0,1,0,0,0,1 @ F,0,0,1,0,0,0,1 @ F,0,0,1,0,0,0,1 @ F,0,0,1,0,0,0,1 @ F,0,0,1,0,0,0,1 @ F,0,0,1,0,0,0,1 @ F,0,0,1,0,0,0,1 @ F,0,0,1,0,0,0,1 @ F,0,0,1,0,0,0,1 @ F,0,0,1,0,0,0,1 @ F,0,0,1,0,0,0,1 @ F,0,0,1,0,0,0,1 @ F,0,0,1,0,0,0,1 @ F,0,0,1,0,0,0,1 @ F,0,0,1,0,0,0,1 @ F,0,0,1,0,0,0,1 @ F,0,0,1,0,0,0,1"
       radius="0"
       unit="px"
       method="auto"
       mode="F"
       chamfer_steps="1"
       flexible="false"
       use_knot_distance="true"
       apply_no_radius="true"
       apply_with_radius="true"
       only_selected="false"
       hide_knots="false" />
    <inkscape:path-effect
       effect="fillet_chamfer"
       id="path-effect36"
       is_visible="true"
       lpeversion="1"
       nodesatellites_param="F,0,0,1,0,0.10144149,0,1 @ F,0,0,1,0,0.061983478,0,1 @ F,0,0,1,0,0,0,1 @ F,0,0,1,0,0.068414778,0,1"
       radius="0"
       unit="px"
       method="auto"
       mode="F"
       chamfer_steps="1"
       flexible="false"
       use_knot_distance="true"
       apply_no_radius="true"
       apply_with_radius="true"
       only_selected="false"
       hide_knots="false" />
    <inkscape:path-effect
       effect="fillet_chamfer"
       id="path-effect35"
       is_visible="true"
       lpeversion="1"
       nodesatellites_param="F,0,0,1,0,0,0,1 @ F,0,0,1,0,0,0,1 @ F,0,0,1,0,0,0,1 @ F,0,0,1,0,0,0,1"
       radius="0"
       unit="px"
       method="auto"
       mode="F"
       chamfer_steps="1"
       flexible="false"
       use_knot_distance="true"
       apply_no_radius="true"
       apply_with_radius="true"
       only_selected="false"
       hide_knots="false" />
    <inkscape:path-effect
       effect="fillet_chamfer"
       id="path-effect34"
       is_visible="true"
       lpeversion="1"
       nodesatellites_param="F,0,0,1,0,0,0,1 @ F,0,0,1,0,0,0,1 @ F,0,0,1,0,0,0,1 @ F,0,0,1,0,0,0,1"
       radius="0"
       unit="px"
       method="auto"
       mode="F"
       chamfer_steps="1"
       flexible="false"
       use_knot_distance="true"
       apply_no_radius="true"
       apply_with_radius="true"
       only_selected="false"
       hide_knots="false" />
    <inkscape:path-effect
       effect="fillet_chamfer"
       id="path-effect33"
       is_visible="true"
       lpeversion="1"
       nodesatellites_param="F,0,0,1,0,0,0,1 @ F,0,0,1,0,0,0,1 @ F,0,0,1,0,0,0,1 @ F,0,0,1,0,0,0,1"
       radius="0"
       unit="px"
       method="auto"
       mode="F"
       chamfer_steps="1"
       flexible="false"
       use_knot_distance="true"
       apply_no_radius="true"
       apply_with_radius="true"
       only_selected="false"
       hide_knots="false" />
    <inkscape:path-effect
       effect="fillet_chamfer"
       id="path-effect32"
       is_visible="true"
       lpeversion="1"
       nodesatellites_param="F,0,0,1,0,0,0,1 @ F,0,0,1,0,0,0,1 @ F,0,0,1,0,0,0,1 @ F,0,0,1,0,0,0,1"
       radius="0"
       unit="px"
       method="auto"
       mode="F"
       chamfer_steps="1"
       flexible="false"
       use_knot_distance="true"
       apply_no_radius="true"
       apply_with_radius="true"
       only_selected="false"
       hide_knots="false" />
    <inkscape:path-effect
       effect="fillet_chamfer"
       id="path-effect31"
       is_visible="true"
       lpeversion="1"
       nodesatellites_param="F,0,0,1,0,0,0,1 @ F,0,0,1,0,0,0,1 @ F,0,0,1,0,0,0,1 @ F,0,0,1,0,0,0,1"
       radius="0"
       unit="px"
       method="auto"
       mode="F"
       chamfer_steps="1"
       flexible="false"
       use_knot_distance="true"
       apply_no_radius="true"
       apply_with_radius="true"
       only_selected="false"
       hide_knots="false" />
    <inkscape:path-effect
       effect="fillet_chamfer"
       id="path-effect30"
       is_visible="true"
       lpeversion="1"
       nodesatellites_param="F,0,0,1,0,0,0,1 @ F,0,0,1,0,0,0,1 @ F,0,0,1,0,0,0,1 @ F,0,0,1,0,0,0,1"
       radius="0"
       unit="px"
       method="auto"
       mode="F"
       chamfer_steps="1"
       flexible="false"
       use_knot_distance="true"
       apply_no_radius="true"
       apply_with_radius="true"
       only_selected="false"
       hide_knots="false" />
    <inkscape:path-effect
       effect="fillet_chamfer"
       id="path-effect29"
       is_visible="true"
       lpeversion="1"
       nodesatellites_param="F,0,0,1,0,0,0,1 @ F,0,0,1,0,0,0,1 @ F,0,0,1,0,0,0,1 @ F,0,0,1,0,0,0,1"
       radius="0"
       unit="px"
       method="auto"
       mode="F"
       chamfer_steps="1"
       flexible="false"
       use_knot_distance="true"
       apply_no_radius="true"
       apply_with_radius="true"
       only_selected="false"
       hide_knots="false" />
    <inkscape:path-effect
       effect="fillet_chamfer"
       id="path-effect28"
       is_visible="true"
       lpeversion="1"
       nodesatellites_param=""
       radius="0"
       unit="px"
       method="auto"
       mode="F"
       chamfer_steps="1"
       flexible="false"
       use_knot_distance="true"
       apply_no_radius="true"
       apply_with_radius="true"
       only_selected="false"
       hide_knots="false" />
    <inkscape:path-effect
       effect="fillet_chamfer"
       id="path-effect27"
       is_visible="true"
       lpeversion="1"
       nodesatellites_param=""
       radius="0"
       unit="px"
       method="auto"
       mode="F"
       chamfer_steps="1"
       flexible="false"
       use_knot_distance="true"
       apply_no_radius="true"
       apply_with_radius="true"
       only_selected="false"
       hide_knots="false" />
    <inkscape:path-effect
       effect="fillet_chamfer"
       id="path-effect26"
       is_visible="true"
       lpeversion="1"
       nodesatellites_param=""
       radius="0"
       unit="px"
       method="auto"
       mode="F"
       chamfer_steps="1"
       flexible="false"
       use_knot_distance="true"
       apply_no_radius="true"
       apply_with_radius="true"
       only_selected="false"
       hide_knots="false" />
    <inkscape:path-effect
       effect="fillet_chamfer"
       id="path-effect25"
       is_visible="true"
       lpeversion="1"
       nodesatellites_param=""
       radius="0"
       unit="px"
       method="auto"
       mode="F"
       chamfer_steps="1"
       flexible="false"
       use_knot_distance="true"
       apply_no_radius="true"
       apply_with_radius="true"
       only_selected="false"
       hide_knots="false" />
    <inkscape:path-effect
       effect="fillet_chamfer"
       id="path-effect24"
       is_visible="true"
       lpeversion="1"
       nodesatellites_param=""
       radius="0"
       unit="px"
       method="auto"
       mode="F"
       chamfer_steps="1"
       flexible="false"
       use_knot_distance="true"
       apply_no_radius="true"
       apply_with_radius="true"
       only_selected="false"
       hide_knots="false" />
    <inkscape:path-effect
       effect="fillet_chamfer"
       id="path-effect23"
       is_visible="true"
       lpeversion="1"
       nodesatellites_param="F,0,0,1,0,0,0,1 @ F,0,0,1,0,0,0,1 @ F,0,0,1,0,0,0,1 @ F,0,0,1,0,0,0,1"
       radius="0"
       unit="px"
       method="auto"
       mode="F"
       chamfer_steps="1"
       flexible="false"
       use_knot_distance="true"
       apply_no_radius="true"
       apply_with_radius="true"
       only_selected="false"
       hide_knots="false" />
    <inkscape:path-effect
       effect="fillet_chamfer"
       id="path-effect22"
       is_visible="true"
       lpeversion="1"
       nodesatellites_param="F,0,0,1,0,0,0,1 @ F,0,0,1,0,0,0,1 @ F,0,0,1,0,0,0,1 @ F,0,0,1,0,0,0,1"
       radius="0"
       unit="px"
       method="auto"
       mode="F"
       chamfer_steps="1"
       flexible="false"
       use_knot_distance="true"
       apply_no_radius="true"
       apply_with_radius="true"
       only_selected="false"
       hide_knots="false" />
    <inkscape:path-effect
       effect="fillet_chamfer"
       id="path-effect21"
       is_visible="true"
       lpeversion="1"
       nodesatellites_param="F,0,0,1,0,0,0,1 @ F,0,0,1,0,0,0,1 @ F,0,0,1,0,0,0,1 @ F,0,0,1,0,0,0,1"
       radius="0"
       unit="px"
       method="auto"
       mode="F"
       chamfer_steps="1"
       flexible="false"
       use_knot_distance="true"
       apply_no_radius="true"
       apply_with_radius="true"
       only_selected="false"
       hide_knots="false" />
    <inkscape:path-effect
       effect="fillet_chamfer"
       id="path-effect20"
       is_visible="true"
       lpeversion="1"
       nodesatellites_param="F,0,0,1,0,0,0,1 @ F,0,0,1,0,0,0,1 @ F,0,0,1,0,0,0,1 @ F,0,0,1,0,0,0,1"
       radius="0"
       unit="px"
       method="auto"
       mode="F"
       chamfer_steps="1"
       flexible="false"
       use_knot_distance="true"
       apply_no_radius="true"
       apply_with_radius="true"
       only_selected="false"
       hide_knots="false" />
    <inkscape:path-effect
       effect="fillet_chamfer"
       id="path-effect19"
       is_visible="true"
       lpeversion="1"
       nodesatellites_param="F,0,0,1,0,0,0,1 @ F,0,0,1,0,0,0,1 @ F,0,0,1,0,0,0,1 @ F,0,0,1,0,0,0,1"
       radius="0"
       unit="px"
       method="auto"
       mode="F"
       chamfer_steps="1"
       flexible="false"
       use_knot_distance="true"
       apply_no_radius="true"
       apply_with_radius="true"
       only_selected="false"
       hide_knots="false" />
    <inkscape:path-effect
       effect="fillet_chamfer"
       id="path-effect18"
       is_visible="true"
       lpeversion="1"
       nodesatellites_param="F,0,0,1,0,0,0,1 @ F,0,0,1,0,0,0,1 @ F,0,0,1,0,0,0,1 @ F,0,0,1,0,0,0,1"
       radius="0"
       unit="px"
       method="auto"
       mode="F"
       chamfer_steps="1"
       flexible="false"
       use_knot_distance="true"
       apply_no_radius="true"
       apply_with_radius="true"
       only_selected="false"
       hide_knots="false" />
  </defs>
  <g
     inkscape:label="Layer 1"
     inkscape:groupmode="layer"
     id="layer1">
    <path
       id="path24"
       style="stroke:#9dd3a6;stroke-width:0.7;stroke-opacity:0"
       d="M 0 0 L 0 26.458333 L 26.458333 26.458333 L 26.458333 0 L 0 0 z M 13.226066 3.2287435 L 23.227006 3.2287435 L 23.227006 23.216671 L 13.400216 23.216671 C 13.342376 23.221271 13.284493 23.225473 13.226583 23.229073 C 13.107531 23.229073 12.988418 23.227072 12.869499 23.222872 C 12.750579 23.218672 12.631604 23.212252 12.512931 23.203752 C 12.394258 23.195252 12.276227 23.184432 12.157914 23.171712 C 12.039601 23.158992 11.921254 23.14421 11.803414 23.127271 C 11.685571 23.110321 11.568088 23.09104 11.450981 23.06991 C 11.333874 23.04877 11.217391 23.025953 11.101131 23.000663 C 10.984871 22.975373 10.86865 22.947928 10.753349 22.918498 C 10.638047 22.889068 10.523416 22.85748 10.409184 22.82393 C 10.294952 22.79039 10.181544 22.75506 10.068636 22.717476 C 9.9557288 22.67989 9.8431823 22.640201 9.7317057 22.598621 C 9.6202292 22.557039 9.509882 22.513419 9.399943 22.467879 C 9.2900041 22.422332 9.1806091 22.374712 9.0723145 22.325252 C 8.9640354 22.275804 8.8567645 22.224515 8.7503703 22.171257 C 8.6439761 22.118 8.5385201 22.062902 8.4341105 22.005892 C 8.329701 21.948882 8.226377 21.889867 8.1240519 21.829159 C 8.0217268 21.76845 7.9203353 21.705923 7.8201945 21.641573 C 7.7200587 21.577233 7.6213006 21.510976 7.5235718 21.443136 C 7.4258428 21.375295 7.3288978 21.305633 7.233667 21.234363 C 7.1384358 21.16309 7.0446732 21.090411 6.9520304 21.015771 C 6.8593881 20.941137 6.7681083 20.864775 6.6781453 20.786845 C 6.58814 20.708859 6.4996503 20.62921 6.4125285 20.5481 C 6.3254071 20.466988 6.2398534 20.384213 6.1556966 20.300053 C 6.0715398 20.215896 5.9887617 20.130341 5.9076497 20.043221 C 5.826538 19.956099 5.7468904 19.867614 5.6689046 19.777604 C 5.5909718 19.687642 5.514615 19.596359 5.439978 19.503719 C 5.3653413 19.411077 5.2926595 19.317311 5.2213867 19.222083 C 5.1501142 19.126851 5.0804539 19.029908 5.0126139 18.932178 C 4.9447738 18.834449 4.8785164 18.735691 4.8141764 18.635555 C 4.7497794 18.535418 4.6873428 18.434019 4.626591 18.331698 C 4.5658388 18.229374 4.5069104 18.126049 4.4498576 18.021639 C 4.3928049 17.917229 4.3372752 17.811776 4.2839762 17.705379 C 4.2306779 17.598983 4.1794703 17.491718 4.1299805 17.383435 C 4.0805625 17.275137 4.0328515 17.165747 3.9873535 17.055806 C 3.9418551 16.945868 3.8986689 16.83552 3.8571289 16.724044 C 3.8155891 16.612567 3.7758141 16.500019 3.7382731 16.387113 C 3.7007317 16.27421 3.6653225 16.160794 3.6318197 16.046566 C 3.5982737 15.932334 3.5666838 15.817702 3.5372518 15.702401 C 3.5078198 15.587099 3.4803801 15.470878 3.4550863 15.354618 C 3.4297913 15.238359 3.4069728 15.121876 3.3858398 15.004769 C 3.364707 14.887662 3.345426 14.770177 3.328479 14.652336 C 3.311534 14.534496 3.2967583 14.416148 3.2840373 14.297835 C 3.2713173 14.179522 3.2604879 14.061491 3.2519979 13.942818 C 3.2435079 13.824145 3.2371276 13.70517 3.2328776 13.586251 C 3.2286276 13.467332 3.2266764 13.348219 3.2266764 13.229167 C 3.2266764 13.110115 3.2286276 12.991 3.2328776 12.872083 C 3.2371276 12.753163 3.2435079 12.634188 3.2519979 12.515515 C 3.2604879 12.396842 3.2713163 12.278811 3.2840373 12.160498 C 3.2967583 12.042185 3.311535 11.923838 3.328479 11.805998 C 3.345426 11.688155 3.3647069 11.570672 3.3858398 11.453564 C 3.4069728 11.336459 3.4297913 11.219975 3.4550863 11.103715 C 3.4803802 10.987455 3.5078198 10.871234 3.5372518 10.755933 C 3.5666838 10.640631 3.5982737 10.525997 3.6318197 10.411768 C 3.6653226 10.297539 3.7007321 10.184126 3.7382731 10.07122 C 3.7758145 9.9583139 3.8155891 9.8457659 3.8571289 9.7342896 C 3.8986687 9.622813 3.9418552 9.5124674 3.9873535 9.4025269 C 4.032852 9.2925861 4.080563 9.1831966 4.1299805 9.0748983 C 4.1794701 8.9666155 4.2306779 8.8593502 4.2839762 8.7529541 C 4.3372748 8.646558 4.3928049 8.5411039 4.4498576 8.4366943 C 4.50691 8.3322848 4.5658388 8.228959 4.626591 8.1266357 C 4.687343 8.0243125 4.7497794 7.9229153 4.8141764 7.8227783 C 4.8785163 7.7226425 4.9447738 7.6238846 5.0126139 7.5261556 C 5.0804543 7.4284266 5.1501142 7.3314819 5.2213867 7.2362508 C 5.2926592 7.1410197 5.3653413 7.0472565 5.439978 6.9546143 C 5.514615 6.861972 5.5909718 6.7706916 5.6689046 6.6807292 C 5.7468908 6.5907238 5.826538 6.5022336 5.9076497 6.4151123 C 5.9887617 6.327991 6.0715398 6.2424374 6.1556966 6.1582804 C 6.2398534 6.0741236 6.3254071 5.9913453 6.4125285 5.9102336 C 6.4996498 5.8291216 6.58814 5.7494748 6.6781453 5.6714884 C 6.768108 5.5935556 6.8593881 5.5171988 6.9520304 5.4425618 C 7.0446727 5.3679251 7.1384358 5.2952432 7.233667 5.2239705 C 7.3288981 5.1526981 7.4258428 5.0830379 7.5235718 5.0151978 C 7.6213008 4.9473574 7.7200587 4.8810999 7.8201945 4.8167603 C 7.9203353 4.7524073 8.0217268 4.6898831 8.1240519 4.6291748 C 8.226377 4.5684665 8.329701 4.5094507 8.4341105 4.4524414 C 8.5385201 4.3954321 8.6439761 4.3403329 8.7503703 4.2870768 C 8.8567645 4.2338209 8.9640354 4.1825291 9.0723145 4.1330811 C 9.1806091 4.0836195 9.290004 4.0359962 9.399943 3.9904541 C 9.509882 3.944912 9.6202292 3.9012957 9.7317057 3.8597127 C 9.8431823 3.8181298 9.9557288 3.7784427 10.068636 3.7408569 C 10.181544 3.703273 10.294952 3.6679488 10.409184 3.6344035 C 10.523416 3.6008575 10.638047 3.5692676 10.753349 3.5398356 C 10.86865 3.5104036 10.984871 3.4829631 11.101131 3.4576701 C 11.217391 3.4323761 11.333874 3.4095566 11.450981 3.3884237 C 11.568088 3.3672907 11.685571 3.3480098 11.803414 3.3310628 C 11.921211 3.3141248 12.039129 3.2993391 12.157397 3.2866211 C 12.275668 3.2739041 12.394302 3.2630717 12.512931 3.2545817 C 12.631561 3.2460917 12.750106 3.2397114 12.868982 3.2354614 C 12.987858 3.2312114 13.107057 3.2292703 13.226066 3.2292603 L 13.226066 3.2287435 z M 13.226066 3.2292603 L 13.226066 6.7375732 A 0.06198348 0.06198348 0 0 0 13.225549 6.7344727 A 0.06198348 0.06198348 0 0 0 13.223999 6.7267212 A 0.06198348 0.06198348 0 0 0 13.221415 6.7189697 A 0.06198348 0.06198348 0 0 0 13.217798 6.711735 A 0.06198348 0.06198348 0 0 0 13.19506 6.6889974 A 0.06198348 0.06198348 0 0 0 13.164054 6.6807292 L 5.7701904 6.6807292 A 0.10144149 0.10144149 0 0 0 5.6983602 6.7101847 A 0.10144149 0.10144149 0 0 0 5.6689046 6.782015 L 5.6689046 19.704224 A 0.06841478 0.06841478 0 0 0 5.7371175 19.772437 L 13.226066 19.772437 L 13.226066 17.760156 L 13.226066 17.759123 L 13.226066 8.6857747 A 4.5654321 4.5370984 0 0 0 12.576493 8.7322835 A 4.5654321 4.5370984 0 0 0 11.93984 8.8697428 A 4.5654321 4.5370984 0 0 0 11.329541 9.0960856 A 4.5654321 4.5370984 0 0 0 10.758 9.4061442 A 4.5654321 4.5370984 0 0 0 10.236584 9.7942342 A 4.5654321 4.5370984 0 0 0 9.7756307 10.251571 A 4.5654321 4.5370984 0 0 0 9.3854736 10.769885 A 4.5654321 4.5370984 0 0 0 9.073348 11.338326 A 4.5654321 4.5370984 0 0 0 8.8454549 11.944491 A 4.5654321 4.5370984 0 0 0 8.7069621 12.577527 A 4.5654321 4.5370984 0 0 0 8.6604533 13.222965 A 4.5654321 4.5370984 0 0 0 8.7069621 13.868921 A 4.5654321 4.5370984 0 0 0 8.8454549 14.50144 A 4.5654321 4.5370984 0 0 0 9.073348 15.107605 A 4.5654321 4.5370984 0 0 0 9.3854736 15.676046 A 4.5654321 4.5370984 0 0 0 9.7756307 16.19436 A 4.5654321 4.5370984 0 0 0 10.236584 16.651697 A 4.5654321 4.5370984 0 0 0 10.758 17.039787 A 4.5654321 4.5370984 0 0 0 11.329541 17.349845 A 4.5654321 4.5370984 0 0 0 11.93984 17.576188 A 4.5654321 4.5370984 0 0 0 12.576493 17.713647 A 4.5654321 4.5370984 0 0 0 13.211597 17.759123 L 8.6537354 17.759123 L 8.6537354 8.6857747 L 13.226066 8.6857747 L 13.226066 6.7427409 A 0.06198348 0.06198348 0 0 1 13.234334 6.711735 A 0.06198348 0.06198348 0 0 1 13.257072 6.6889974 A 0.06198348 0.06198348 0 0 1 13.288078 6.6807292 L 20.681942 6.6807292 A 0.10144149 0.10144149 0 0 1 20.753772 6.7101847 A 0.10144149 0.10144149 0 0 1 20.764107 6.7220703 A 0.10144149 0.10144149 0 0 1 20.772375 6.7360229 A 0.10144149 0.10144149 0 0 1 20.778577 6.7504924 A 0.10144149 0.10144149 0 0 1 20.782194 6.7659953 A 0.10144149 0.10144149 0 0 1 20.782711 6.7701294 A 0.10144149 0.10144149 0 0 1 20.783228 6.7737467 A 0.10144149 0.10144149 0 0 1 20.783228 6.7742635 A 0.10144149 0.10144149 0 0 1 20.783228 6.7747803 A 0.10144149 0.10144149 0 0 1 20.783228 6.775297 A 0.10144149 0.10144149 0 0 1 20.783228 6.7758138 A 0.10144149 0.10144149 0 0 1 20.783228 6.7763306 A 0.10144149 0.10144149 0 0 1 20.783228 6.7768473 A 0.10144149 0.10144149 0 0 1 20.783228 6.7773641 A 0.10144149 0.10144149 0 0 1 20.783228 6.7778809 A 0.10144149 0.10144149 0 0 1 20.783228 6.7783976 A 0.10144149 0.10144149 0 0 1 20.783228 6.7789144 A 0.10144149 0.10144149 0 0 1 20.783228 6.7794312 A 0.10144149 0.10144149 0 0 1 20.783228 6.7799479 A 0.10144149 0.10144149 0 0 1 20.783228 6.7804647 A 0.10144149 0.10144149 0 0 1 20.783228 6.7809814 A 0.10144149 0.10144149 0 0 1 20.783228 6.7814982 A 0.10144149 0.10144149 0 0 1 20.783228 6.782015 L 20.783228 19.704224 A 0.06841478 0.06841478 0 0 1 20.763074 19.752283 A 0.06841478 0.06841478 0 0 1 20.715015 19.772437 L 13.226066 19.772437 L 13.226066 23.216671 L 13.400216 23.216671 A 10 10 0 0 0 14.649752 23.127271 A 10 10 0 0 0 16.043982 22.82393 A 10 10 0 0 0 17.380851 22.325252 A 10 10 0 0 0 18.632971 21.641573 A 10 10 0 0 0 19.77502 20.786845 A 10 10 0 0 0 20.783744 19.777604 A 10 10 0 0 0 21.638989 18.635555 A 10 10 0 0 0 22.322668 17.383435 A 10 10 0 0 0 22.821346 16.046566 A 10 10 0 0 0 23.124687 14.652336 A 10 10 0 0 0 23.226489 13.229167 A 10 10 0 0 0 23.226489 13.22865 A 10 10 0 0 0 23.226489 13.228133 A 10 10 0 0 0 23.226489 13.227616 A 10 10 0 0 0 23.226489 13.2271 A 10 10 0 0 0 23.226489 13.226583 A 10 10 0 0 0 23.226489 13.226066 A 10 10 0 0 0 23.226489 13.225549 A 10 10 0 0 0 23.226489 13.225033 A 10 10 0 0 0 23.226489 13.224516 A 10 10 0 0 0 23.226489 13.223999 A 10 10 0 0 0 23.226489 13.223482 A 10 10 0 0 0 23.226489 13.222965 A 10 10 0 0 0 23.226489 13.222449 A 10 10 0 0 0 23.226489 13.221932 A 10 10 0 0 0 23.226489 13.221415 A 10 10 0 0 0 23.226489 13.220898 A 10 10 0 0 0 23.226489 13.220382 A 10 10 0 0 0 23.226489 13.219865 A 10 10 0 0 0 23.226489 13.219348 A 10 10 0 0 0 23.226489 13.218831 A 10 10 0 0 0 23.226489 13.218315 A 10 10 0 0 0 23.226489 13.217798 A 10 10 0 0 0 23.226489 13.217281 A 10 10 0 0 0 23.226489 13.216764 A 10 10 0 0 0 23.226489 13.216248 A 10 10 0 0 0 23.226489 13.215731 A 10 10 0 0 0 23.226489 13.215214 A 10 10 0 0 0 23.226489 13.214697 A 10 10 0 0 0 23.226489 13.214181 A 10 10 0 0 0 23.226489 13.213664 A 10 10 0 0 0 23.226489 13.213147 A 10 10 0 0 0 23.226489 13.21263 A 10 10 0 0 0 23.226489 13.212113 A 10 10 0 0 0 23.226489 13.211597 A 10 10 0 0 0 23.226489 13.21108 A 10 10 0 0 0 23.226489 13.210563 A 10 10 0 0 0 23.226489 13.210046 A 10 10 0 0 0 23.226489 13.20953 A 10 10 0 0 0 23.226489 13.209013 A 10 10 0 0 0 23.226489 13.208496 A 10 10 0 0 0 23.226489 13.207979 A 10 10 0 0 0 23.226489 13.207463 A 10 10 0 0 0 23.226489 13.206946 A 10 10 0 0 0 23.226489 13.206429 A 10 10 0 0 0 23.226489 13.205912 A 10 10 0 0 0 23.226489 13.205396 A 10 10 0 0 0 23.226489 13.204879 A 10 10 0 0 0 23.226489 13.204362 A 10 10 0 0 0 23.226489 13.203845 A 10 10 0 0 0 23.226489 13.203328 A 10 10 0 0 0 23.226489 13.202812 A 10 10 0 0 0 23.226489 13.202295 A 10 10 0 0 0 23.226489 13.201778 A 10 10 0 0 0 23.226489 13.201261 A 10 10 0 0 0 23.226489 13.200745 A 10 10 0 0 0 23.226489 13.200228 A 10 10 0 0 0 23.226489 13.199711 A 10 10 0 0 0 23.226489 13.199194 A 10 10 0 0 0 23.226489 13.198678 A 10 10 0 0 0 23.226489 13.198161 A 10 10 0 0 0 23.226489 13.197644 A 10 10 0 0 0 23.226489 13.197127 A 10 10 0 0 0 23.226489 13.196611 A 10 10 0 0 0 23.226489 13.196094 A 10 10 0 0 0 23.226489 13.195577 A 10 10 0 0 0 23.226489 13.19506 A 10 10 0 0 0 23.226489 13.194543 A 10 10 0 0 0 23.226489 13.194027 A 10 10 0 0 0 23.226489 13.19351 A 10 10 0 0 0 23.226489 13.192993 A 10 10 0 0 0 23.226489 13.192476 A 10 10 0 0 0 23.226489 13.19196 A 10 10 0 0 0 23.226489 13.191443 A 10 10 0 0 0 23.226489 13.190926 A 10 10 0 0 0 23.226489 13.190409 A 10 10 0 0 0 23.226489 13.189893 A 10 10 0 0 0 23.226489 13.189376 A 10 10 0 0 0 23.226489 13.188859 A 10 10 0 0 0 23.226489 13.188342 A 10 10 0 0 0 23.226489 13.187826 A 10 10 0 0 0 23.226489 13.187309 A 10 10 0 0 0 23.226489 13.186792 A 10 10 0 0 0 23.226489 13.186275 A 10 10 0 0 0 23.226489 13.185758 A 10 10 0 0 0 23.226489 13.185242 A 10 10 0 0 0 23.226489 13.184725 A 10 10 0 0 0 23.226489 13.184208 A 10 10 0 0 0 23.226489 13.183691 A 10 10 0 0 0 23.226489 13.183175 A 10 10 0 0 0 23.226489 13.182658 A 10 10 0 0 0 23.226489 13.182141 A 10 10 0 0 0 23.226489 13.181624 A 10 10 0 0 0 23.226489 13.181108 A 10 10 0 0 0 23.226489 13.180591 A 10 10 0 0 0 23.226489 13.180074 A 10 10 0 0 0 23.226489 13.179557 A 10 10 0 0 0 23.226489 13.179041 A 10 10 0 0 0 23.226489 13.178524 A 10 10 0 0 0 23.226489 13.178007 A 10 10 0 0 0 23.226489 13.17749 A 10 10 0 0 0 23.226489 13.176973 A 10 10 0 0 0 23.226489 13.176457 A 10 10 0 0 0 23.226489 13.17594 A 10 10 0 0 0 23.226489 13.175423 A 10 10 0 0 0 23.226489 13.174906 A 10 10 0 0 0 23.226489 13.17439 A 10 10 0 0 0 23.226489 13.173873 A 10 10 0 0 0 23.226489 13.173356 A 10 10 0 0 0 23.226489 13.172839 A 10 10 0 0 0 23.226489 13.172323 A 10 10 0 0 0 23.226489 13.171806 A 10 10 0 0 0 23.226489 13.171289 A 10 10 0 0 0 23.226489 13.170772 A 10 10 0 0 0 23.226489 13.170256 A 10 10 0 0 0 23.226489 13.169739 A 10 10 0 0 0 23.226489 13.169222 A 10 10 0 0 0 23.226489 13.168705 A 10 10 0 0 0 23.226489 13.168188 A 10 10 0 0 0 23.226489 13.167672 A 10 10 0 0 0 23.226489 13.167155 A 10 10 0 0 0 23.226489 13.166638 A 10 10 0 0 0 23.226489 13.166121 A 10 10 0 0 0 23.226489 13.165605 A 10 10 0 0 0 23.226489 13.165088 A 10 10 0 0 0 23.226489 13.164571 A 10 10 0 0 0 23.226489 13.164054 A 10 10 0 0 0 23.226489 13.163538 A 10 10 0 0 0 23.226489 13.163021 A 10 10 0 0 0 23.225972 13.149585 A 10 10 0 0 0 23.225972 13.149068 A 10 10 0 0 0 23.225972 13.148551 A 10 10 0 0 0 23.225972 13.148035 A 10 10 0 0 0 23.225972 13.147518 A 10 10 0 0 0 23.225972 13.147001 A 10 10 0 0 0 23.225972 13.146484 A 10 10 0 0 0 23.225972 13.145968 A 10 10 0 0 0 23.225972 13.145451 A 10 10 0 0 0 23.225972 13.144934 A 10 10 0 0 0 23.225972 13.144417 A 10 10 0 0 0 23.225972 13.143901 A 10 10 0 0 0 23.225972 13.143384 A 10 10 0 0 0 23.225972 13.142867 A 10 10 0 0 0 23.225972 13.14235 A 10 10 0 0 0 23.225972 13.141833 A 10 10 0 0 0 23.225972 13.141317 A 10 10 0 0 0 23.225972 13.1408 A 10 10 0 0 0 23.225972 13.140283 A 10 10 0 0 0 23.225972 13.139766 A 10 10 0 0 0 23.225972 13.13925 A 10 10 0 0 0 23.225972 13.138733 A 10 10 0 0 0 23.225972 13.138216 A 10 10 0 0 0 23.225972 13.137699 A 10 10 0 0 0 23.225972 13.137183 A 10 10 0 0 0 23.225972 13.136666 A 10 10 0 0 0 23.225972 13.136149 A 10 10 0 0 0 23.225972 13.135632 A 10 10 0 0 0 23.225972 13.135116 A 10 10 0 0 0 23.225972 13.134599 A 10 10 0 0 0 23.225972 13.134082 A 10 10 0 0 0 23.225972 13.133565 A 10 10 0 0 0 23.225972 13.133049 A 10 10 0 0 0 23.225972 13.132532 A 10 10 0 0 0 23.225972 13.132015 A 10 10 0 0 0 23.225972 13.131498 A 10 10 0 0 0 23.225972 13.130981 A 10 10 0 0 0 23.225972 13.130465 A 10 10 0 0 0 23.225972 13.129948 A 10 10 0 0 0 23.225972 13.129431 A 10 10 0 0 0 23.225972 13.128914 A 10 10 0 0 0 23.225972 13.128398 A 10 10 0 0 0 23.225972 13.127881 A 10 10 0 0 0 23.225972 13.127364 A 10 10 0 0 0 23.225972 13.126847 A 10 10 0 0 0 23.225972 13.126331 A 10 10 0 0 0 23.225972 13.125814 A 10 10 0 0 0 23.225972 13.125297 A 10 10 0 0 0 23.225972 13.12478 A 10 10 0 0 0 23.225972 13.124264 A 10 10 0 0 0 23.225972 13.123747 A 10 10 0 0 0 23.225972 13.12323 A 10 10 0 0 0 23.225972 13.122713 A 10 10 0 0 0 23.225972 13.122196 A 10 10 0 0 0 23.225972 13.12168 A 10 10 0 0 0 23.225972 13.121163 A 10 10 0 0 0 23.225972 13.120646 A 10 10 0 0 0 23.225972 13.120129 A 10 10 0 0 0 23.225972 13.119613 A 10 10 0 0 0 23.225972 13.119096 A 10 10 0 0 0 23.225972 13.118579 A 10 10 0 0 0 23.225972 13.118062 A 10 10 0 0 0 23.225972 13.117546 A 10 10 0 0 0 23.225972 13.117029 A 10 10 0 0 0 23.225972 13.116512 A 10 10 0 0 0 23.225972 13.115995 A 10 10 0 0 0 23.225972 13.115479 A 10 10 0 0 0 23.225972 13.114962 A 10 10 0 0 0 23.225972 13.114445 A 10 10 0 0 0 23.225972 13.113928 A 10 10 0 0 0 23.225972 13.113411 A 10 10 0 0 0 23.225972 13.112895 A 10 10 0 0 0 23.225972 13.112378 A 10 10 0 0 0 23.225972 13.111861 A 10 10 0 0 0 23.225972 13.111344 A 10 10 0 0 0 23.225972 13.110828 A 10 10 0 0 0 23.225972 13.110311 A 10 10 0 0 0 23.225972 13.109794 A 10 10 0 0 0 23.225456 13.096358 A 10 10 0 0 0 23.225456 13.095841 A 10 10 0 0 0 23.225456 13.095325 A 10 10 0 0 0 23.225456 13.094808 A 10 10 0 0 0 23.225456 13.094291 A 10 10 0 0 0 23.225456 13.093774 A 10 10 0 0 0 23.225456 13.093258 A 10 10 0 0 0 23.225456 13.092741 A 10 10 0 0 0 23.225456 13.092224 A 10 10 0 0 0 23.225456 13.091707 A 10 10 0 0 0 23.225456 13.091191 A 10 10 0 0 0 23.225456 13.090674 A 10 10 0 0 0 23.225456 13.090157 A 10 10 0 0 0 23.225456 13.08964 A 10 10 0 0 0 23.225456 13.089124 A 10 10 0 0 0 23.225456 13.088607 A 10 10 0 0 0 23.225456 13.08809 A 10 10 0 0 0 23.225456 13.087573 A 10 10 0 0 0 23.225456 13.087056 A 10 10 0 0 0 23.225456 13.08654 A 10 10 0 0 0 23.225456 13.086023 A 10 10 0 0 0 23.225456 13.085506 A 10 10 0 0 0 23.225456 13.084989 A 10 10 0 0 0 23.225456 13.084473 A 10 10 0 0 0 23.225456 13.083956 A 10 10 0 0 0 23.225456 13.083439 A 10 10 0 0 0 23.225456 13.082922 A 10 10 0 0 0 23.225456 13.082406 A 10 10 0 0 0 23.225456 13.081889 A 10 10 0 0 0 23.225456 13.081372 A 10 10 0 0 0 23.225456 13.080855 A 10 10 0 0 0 23.225456 13.080339 A 10 10 0 0 0 23.225456 13.079822 A 10 10 0 0 0 23.225456 13.079305 A 10 10 0 0 0 23.225456 13.078788 A 10 10 0 0 0 23.225456 13.078271 A 10 10 0 0 0 23.225456 13.077755 A 10 10 0 0 0 23.225456 13.077238 A 10 10 0 0 0 23.225456 13.076721 A 10 10 0 0 0 23.225456 13.076204 A 10 10 0 0 0 23.225456 13.075688 A 10 10 0 0 0 23.225456 13.075171 A 10 10 0 0 0 23.225456 13.074654 A 10 10 0 0 0 23.225456 13.074137 A 10 10 0 0 0 23.225456 13.073621 A 10 10 0 0 0 23.225456 13.073104 A 10 10 0 0 0 23.225456 13.072587 A 10 10 0 0 0 23.225456 13.07207 A 10 10 0 0 0 23.225456 13.071554 A 10 10 0 0 0 23.225456 13.071037 A 10 10 0 0 0 23.225456 13.07052 A 10 10 0 0 0 23.225456 13.070003 A 10 10 0 0 0 23.224939 13.056567 A 10 10 0 0 0 23.224939 13.056051 A 10 10 0 0 0 23.224939 13.055534 A 10 10 0 0 0 23.224939 13.055017 A 10 10 0 0 0 23.224939 13.0545 A 10 10 0 0 0 23.224939 13.053984 A 10 10 0 0 0 23.224939 13.053467 A 10 10 0 0 0 23.224939 13.05295 A 10 10 0 0 0 23.224939 13.052433 A 10 10 0 0 0 23.224939 13.051917 A 10 10 0 0 0 23.224939 13.0514 A 10 10 0 0 0 23.224939 13.050883 A 10 10 0 0 0 23.224939 13.050366 A 10 10 0 0 0 23.224939 13.049849 A 10 10 0 0 0 23.224939 13.049333 A 10 10 0 0 0 23.224939 13.048816 A 10 10 0 0 0 23.224939 13.048299 A 10 10 0 0 0 23.224939 13.047782 A 10 10 0 0 0 23.224939 13.047266 A 10 10 0 0 0 23.224939 13.046749 A 10 10 0 0 0 23.224939 13.046232 A 10 10 0 0 0 23.224939 13.045715 A 10 10 0 0 0 23.224939 13.045199 A 10 10 0 0 0 23.224939 13.044682 A 10 10 0 0 0 23.224939 13.044165 A 10 10 0 0 0 23.224939 13.043648 A 10 10 0 0 0 23.224939 13.043132 A 10 10 0 0 0 23.224422 13.030212 A 10 10 0 0 0 23.224422 13.029696 A 10 10 0 0 0 23.224422 13.029179 A 10 10 0 0 0 23.224422 13.028662 A 10 10 0 0 0 23.224422 13.028145 A 10 10 0 0 0 23.224422 13.027629 A 10 10 0 0 0 23.224422 13.027112 A 10 10 0 0 0 23.224422 13.026595 A 10 10 0 0 0 23.224422 13.026078 A 10 10 0 0 0 23.224422 13.025562 A 10 10 0 0 0 23.224422 13.025045 A 10 10 0 0 0 23.224422 13.024528 A 10 10 0 0 0 23.224422 13.024011 A 10 10 0 0 0 23.224422 13.023494 A 10 10 0 0 0 23.224422 13.022978 A 10 10 0 0 0 23.224422 13.022461 A 10 10 0 0 0 23.224422 13.021944 A 10 10 0 0 0 23.224422 13.021427 A 10 10 0 0 0 23.224422 13.020911 A 10 10 0 0 0 23.224422 13.020394 A 10 10 0 0 0 23.224422 13.019877 A 10 10 0 0 0 23.224422 13.01936 A 10 10 0 0 0 23.224422 13.018844 A 10 10 0 0 0 23.224422 13.018327 A 10 10 0 0 0 23.224422 13.01781 A 10 10 0 0 0 23.224422 13.017293 A 10 10 0 0 0 23.224422 13.016777 A 10 10 0 0 0 23.223905 13.003341 A 10 10 0 0 0 23.223905 13.002824 A 10 10 0 0 0 23.223905 13.002307 A 10 10 0 0 0 23.223905 13.00179 A 10 10 0 0 0 23.223905 13.001274 A 10 10 0 0 0 23.223905 13.000757 A 10 10 0 0 0 23.223905 13.00024 A 10 10 0 0 0 23.223905 12.999723 A 10 10 0 0 0 23.223905 12.999207 A 10 10 0 0 0 23.223905 12.99869 A 10 10 0 0 0 23.223905 12.998173 A 10 10 0 0 0 23.223905 12.997656 A 10 10 0 0 0 23.223905 12.997139 A 10 10 0 0 0 23.223905 12.996623 A 10 10 0 0 0 23.223905 12.996106 A 10 10 0 0 0 23.223905 12.995589 A 10 10 0 0 0 23.223905 12.995072 A 10 10 0 0 0 23.223905 12.994556 A 10 10 0 0 0 23.223905 12.994039 A 10 10 0 0 0 23.223905 12.993522 A 10 10 0 0 0 23.223905 12.993005 A 10 10 0 0 0 23.223905 12.992489 A 10 10 0 0 0 23.223905 12.991972 A 10 10 0 0 0 23.223905 12.991455 A 10 10 0 0 0 23.223905 12.990938 A 10 10 0 0 0 23.223905 12.990422 A 10 10 0 0 0 23.223389 12.976986 A 10 10 0 0 0 23.222872 12.96355 A 10 10 0 0 0 23.222872 12.963033 A 10 10 0 0 0 23.222872 12.962516 A 10 10 0 0 0 23.222872 12.962 A 10 10 0 0 0 23.222872 12.961483 A 10 10 0 0 0 23.222872 12.960966 A 10 10 0 0 0 23.222872 12.960449 A 10 10 0 0 0 23.222872 12.959932 A 10 10 0 0 0 23.222872 12.959416 A 10 10 0 0 0 23.222872 12.958899 A 10 10 0 0 0 23.222872 12.958382 A 10 10 0 0 0 23.222872 12.957865 A 10 10 0 0 0 23.222872 12.957349 A 10 10 0 0 0 23.222872 12.956832 A 10 10 0 0 0 23.222872 12.956315 A 10 10 0 0 0 23.222872 12.955798 A 10 10 0 0 0 23.222872 12.955282 A 10 10 0 0 0 23.222872 12.954765 A 10 10 0 0 0 23.222872 12.954248 A 10 10 0 0 0 23.222872 12.953731 A 10 10 0 0 0 23.222872 12.953215 A 10 10 0 0 0 23.222872 12.952698 A 10 10 0 0 0 23.222872 12.952181 A 10 10 0 0 0 23.222872 12.951664 A 10 10 0 0 0 23.222872 12.951147 A 10 10 0 0 0 23.222872 12.950631 A 10 10 0 0 0 23.222355 12.937195 A 10 10 0 0 0 23.221838 12.923759 A 10 10 0 0 0 23.221322 12.91084 A 10 10 0 0 0 23.221322 12.910323 A 10 10 0 0 0 23.221322 12.909806 A 10 10 0 0 0 23.221322 12.90929 A 10 10 0 0 0 23.221322 12.908773 A 10 10 0 0 0 23.221322 12.908256 A 10 10 0 0 0 23.221322 12.907739 A 10 10 0 0 0 23.221322 12.907222 A 10 10 0 0 0 23.221322 12.906706 A 10 10 0 0 0 23.221322 12.906189 A 10 10 0 0 0 23.221322 12.905672 A 10 10 0 0 0 23.221322 12.905155 A 10 10 0 0 0 23.221322 12.904639 A 10 10 0 0 0 23.221322 12.904122 A 10 10 0 0 0 23.221322 12.903605 A 10 10 0 0 0 23.221322 12.903088 A 10 10 0 0 0 23.221322 12.902572 A 10 10 0 0 0 23.221322 12.902055 A 10 10 0 0 0 23.221322 12.901538 A 10 10 0 0 0 23.221322 12.901021 A 10 10 0 0 0 23.221322 12.900505 A 10 10 0 0 0 23.221322 12.899988 A 10 10 0 0 0 23.221322 12.899471 A 10 10 0 0 0 23.221322 12.898954 A 10 10 0 0 0 23.221322 12.898437 A 10 10 0 0 0 23.221322 12.897921 A 10 10 0 0 0 23.221322 12.897404 A 10 10 0 0 0 23.220805 12.883968 A 10 10 0 0 0 23.220288 12.871049 A 10 10 0 0 0 23.219771 12.857613 A 10 10 0 0 0 23.219255 12.844177 A 10 10 0 0 0 23.218738 12.831258 A 10 10 0 0 0 23.218221 12.817822 A 10 10 0 0 0 23.217704 12.804386 A 10 10 0 0 0 23.217187 12.791467 A 10 10 0 0 0 23.216671 12.778031 A 10 10 0 0 0 23.215637 12.764596 A 10 10 0 0 0 23.21512 12.751676 A 10 10 0 0 0 23.214604 12.738241 A 10 10 0 0 0 23.17843 12.248865 A 10 10 0 0 0 23.118486 11.762073 A 10 10 0 0 0 23.034253 11.278381 A 10 10 0 0 0 22.926766 10.799341 A 10 10 0 0 0 22.796025 10.326501 A 10 10 0 0 0 22.642029 9.86038 A 10 10 0 0 0 22.465295 9.4025269 A 10 10 0 0 0 22.266341 8.9534587 A 10 10 0 0 0 22.045683 8.5152425 A 10 10 0 0 0 21.803837 8.0878784 A 10 10 0 0 0 21.541321 7.6734334 A 10 10 0 0 0 21.258651 7.2724243 A 10 10 0 0 0 20.95686 6.8853678 A 10 10 0 0 0 20.63595 6.5138143 A 10 10 0 0 0 20.297469 6.1582804 A 10 10 0 0 0 19.941935 5.8197998 A 10 10 0 0 0 19.570382 5.4988892 A 10 10 0 0 0 19.183325 5.1970988 A 10 10 0 0 0 18.782316 4.9144287 A 10 10 0 0 0 18.367354 4.6519124 A 10 10 0 0 0 17.940507 4.4100667 A 10 10 0 0 0 17.502291 4.1894084 A 10 10 0 0 0 17.053223 3.9904541 A 10 10 0 0 0 16.595369 3.8137207 A 10 10 0 0 0 16.129248 3.6597249 A 10 10 0 0 0 15.656409 3.5289836 A 10 10 0 0 0 15.177368 3.4214966 A 10 10 0 0 0 14.693677 3.337264 A 10 10 0 0 0 14.206885 3.2773193 A 10 10 0 0 0 13.716992 3.2411458 A 10 10 0 0 0 13.226583 3.2292603 A 10 10 0 0 1 13.226066 3.2292603 z " />
    <path
       d="M 13.226066,8.6857747 H 8.6537354 V 17.759123 H 13.211597 A 4.5654321,4.5370984 0 0 1 12.576493,17.713647 4.5654321,4.5370984 0 0 1 11.93984,17.576188 4.5654321,4.5370984 0 0 1 11.329541,17.349845 4.5654321,4.5370984 0 0 1 10.758,17.039787 4.5654321,4.5370984 0 0 1 10.236584,16.651697 4.5654321,4.5370984 0 0 1 9.7756307,16.19436 4.5654321,4.5370984 0 0 1 9.3854736,15.676046 4.5654321,4.5370984 0 0 1 9.073348,15.107605 4.5654321,4.5370984 0 0 1 8.8454549,14.50144 4.5654321,4.5370984 0 0 1 8.7069621,13.868921 4.5654321,4.5370984 0 0 1 8.6604533,13.222965 4.5654321,4.5370984 0 0 1 8.7069621,12.577527 4.5654321,4.5370984 0 0 1 8.8454549,11.944491 4.5654321,4.5370984 0 0 1 9.073348,11.338326 4.5654321,4.5370984 0 0 1 9.3854736,10.769885 4.5654321,4.5370984 0 0 1 9.7756307,10.251571 4.5654321,4.5370984 0 0 1 10.236584,9.7942342 4.5654321,4.5370984 0 0 1 10.758,9.4061442 4.5654321,4.5370984 0 0 1 11.329541,9.0960856 4.5654321,4.5370984 0 0 1 11.93984,8.8697428 4.5654321,4.5370984 0 0 1 12.576493,8.7322835 4.5654321,4.5370984 0 0 1 13.226066,8.6857747 Z"
       style="fill:#4ce0b3;stroke:#9dd3a6;stroke-width:0.7"
       id="path26" />
    <path
       d="m 13.400216,23.216671 h -0.17415 V 19.772437 H 5.7371175 a 0.06841478,0.06841478 0 0 1 -0.068213,-0.06821 V 6.782015 a 0.10144149,0.10144149 0 0 1 0.029456,-0.07183 0.10144149,0.10144149 0 0 1 0.07183,-0.029456 h 7.3938636 a 0.06198348,0.06198348 0 0 1 0.03101,0.00827 0.06198348,0.06198348 0 0 1 0.02274,0.022738 0.06198348,0.06198348 0 0 1 0.0036,0.00723 0.06198348,0.06198348 0 0 1 0.0026,0.00775 0.06198348,0.06198348 0 0 1 0.0016,0.00775 0.06198348,0.06198348 0 0 1 5.17e-4,0.00827 V 3.2292603 c -0.119009,7.3e-6 -0.238208,0.00195 -0.357084,0.0062 -0.118876,0.00425 -0.237421,0.010631 -0.356051,0.01912 -0.118629,0.00849 -0.237263,0.019322 -0.355534,0.032039 -0.118269,0.012718 -0.236186,0.027504 -0.353983,0.044442 -0.117843,0.016947 -0.235326,0.036228 -0.352433,0.057361 -0.117107,0.021133 -0.23359,0.043952 -0.34985,0.069246 -0.11626,0.025294 -0.232481,0.052733 -0.347782,0.082165 -0.115302,0.029432 -0.229933,0.061022 -0.344165,0.094568 -0.114232,0.033545 -0.22764,0.068869 -0.340548,0.1064534 C 9.9557286,3.7784431 9.8431824,3.8181299 9.7317057,3.8597127 9.6202291,3.9012957 9.5098821,3.944912 9.399943,3.9904541 9.2900039,4.0359962 9.1806093,4.0836195 9.0723145,4.1330811 8.9640353,4.1825292 8.8567646,4.2338208 8.7503703,4.2870768 8.643976,4.3403329 8.5385202,4.395432 8.4341105,4.4524414 8.3297009,4.5094508 8.2263771,4.5684664 8.1240519,4.6291748 8.0217267,4.6898832 7.9203354,4.7524073 7.8201945,4.8167603 7.7200586,4.8811 7.6213009,4.9473574 7.5235718,5.0151978 7.4258427,5.083038 7.3288982,5.152698 7.233667,5.2239705 7.1384357,5.2952432 7.0446728,5.367925 6.9520304,5.4425618 6.859388,5.5171988 6.768108,5.5935555 6.6781453,5.6714884 6.5881399,5.7494748 6.4996499,5.8291216 6.4125285,5.9102336 6.325407,5.9913454 6.2398535,6.0741235 6.1556966,6.1582804 6.0715397,6.2424374 5.9887617,6.3279909 5.9076497,6.4151123 5.8265379,6.5022337 5.7468909,6.5907237 5.6689046,6.6807292 5.5909717,6.7706917 5.514615,6.8619719 5.439978,6.9546143 5.3653412,7.0472566 5.2926593,7.1410196 5.2213867,7.2362508 5.1501141,7.331482 5.0804543,7.4284265 5.0126139,7.5261556 4.9447737,7.6238847 4.8785163,7.7226424 4.8141764,7.8227783 4.7497793,7.9229154 4.6873431,8.0243124 4.626591,8.1266357 4.5658388,8.2289591 4.5069101,8.3322847 4.4498576,8.4366943 4.3928049,8.541104 4.3372748,8.6465579 4.2839762,8.7529541 4.2306778,8.8593503 4.1794702,8.9666154 4.1299805,9.0748983 4.080563,9.1831967 4.032852,9.292586 3.9873535,9.4025269 3.9418551,9.5124676 3.8986687,9.6228129 3.8571289,9.7342896 3.8155891,9.8457661 3.7758145,9.9583139 3.7382731,10.07122 c -0.037541,0.112906 -0.07295,0.226319 -0.1064534,0.340548 -0.033546,0.11423 -0.065136,0.228863 -0.094568,0.344165 -0.029432,0.115301 -0.056872,0.231522 -0.082165,0.347782 -0.025295,0.11626 -0.048113,0.232743 -0.069247,0.349849 -0.021133,0.117108 -0.040414,0.234591 -0.057361,0.352434 -0.016944,0.11784 -0.031721,0.236187 -0.044442,0.3545 -0.012721,0.118313 -0.023551,0.236344 -0.032039,0.355017 -0.00849,0.118673 -0.014871,0.237648 -0.01912,0.356568 -0.00425,0.118918 -0.0062,0.238032 -0.0062,0.357084 1.2e-6,0.119052 0.00195,0.238165 0.0062,0.357084 0.00425,0.118919 0.010631,0.237894 0.01912,0.356567 0.00849,0.118673 0.019319,0.236704 0.032039,0.355017 0.012721,0.118313 0.027497,0.236661 0.044442,0.354501 0.016947,0.117842 0.036228,0.235326 0.057361,0.352433 0.021133,0.117107 0.043952,0.23359 0.069247,0.349849 0.025294,0.11626 0.052733,0.232481 0.082165,0.347783 0.029432,0.115301 0.061022,0.229933 0.094568,0.344165 0.033503,0.114228 0.068912,0.227643 0.1064534,0.340547 0.037541,0.112906 0.077316,0.225454 0.1188558,0.336931 0.04154,0.111476 0.084726,0.221823 0.1302246,0.331762 0.045498,0.109941 0.093209,0.219331 0.142627,0.327629 0.04949,0.108283 0.1006973,0.215548 0.1539957,0.321944 0.053299,0.106397 0.1088287,0.21185 0.1658814,0.31626 0.057053,0.10441 0.1159812,0.207735 0.1767334,0.310059 0.060752,0.102322 0.1231883,0.20372 0.1875854,0.303857 0.06434,0.100136 0.1305973,0.198894 0.1984375,0.296623 0.06784,0.09773 0.1375002,0.194673 0.2087728,0.289905 0.071273,0.09523 0.1439545,0.188994 0.2185913,0.281636 0.074637,0.09264 0.1509937,0.183923 0.2289266,0.273885 0.077986,0.09001 0.1576333,0.178495 0.2387451,0.265617 0.081112,0.08712 0.16389,0.172675 0.2480469,0.256832 0.084157,0.08416 0.1697104,0.166935 0.2568319,0.248047 0.087122,0.08111 0.1756114,0.160759 0.2656168,0.238745 0.089963,0.07793 0.1812427,0.154291 0.2738851,0.228926 0.092643,0.07464 0.1864053,0.147319 0.2816366,0.218592 0.095231,0.07127 0.1921757,0.140932 0.2899048,0.208773 0.097729,0.06784 0.1964868,0.134097 0.2966227,0.198437 0.1001409,0.06435 0.2015322,0.126877 0.3038574,0.187586 0.1023252,0.06071 0.205649,0.119723 0.3100586,0.176733 0.1044097,0.05701 0.2098655,0.112108 0.3162598,0.165365 0.1063943,0.05326 0.213665,0.104547 0.3219442,0.153995 0.1082948,0.04946 0.2176895,0.09708 0.3276285,0.142627 0.1099391,0.04554 0.2202861,0.08916 0.3317627,0.130742 0.1114767,0.04158 0.2240229,0.08127 0.3369303,0.118855 0.112908,0.03758 0.226316,0.07291 0.340548,0.106454 0.114232,0.03355 0.228863,0.06514 0.344165,0.09457 0.115301,0.02943 0.231522,0.05688 0.347782,0.08216 0.11626,0.02529 0.232743,0.04811 0.34985,0.06925 0.117107,0.02113 0.23459,0.04041 0.352433,0.05736 0.11784,0.01694 0.236187,0.03172 0.3545,0.04444 0.118313,0.01272 0.236344,0.02355 0.355017,0.03204 0.118673,0.0085 0.237648,0.01487 0.356568,0.01912 0.118919,0.0042 0.238032,0.0062 0.357084,0.0062 0.05791,-0.0036 0.115792,-0.0078 0.173633,-0.0124 z"
       style="fill:#4ce0b3;stroke:#9dd3a6;stroke-width:0.7"
       id="path22" />
    <path
       d="m 13.226066,3.2287435 v 5.168e-4 a 10,10 0 0 1 5.17e-4,0 10,10 0 0 1 0.490409,0.011885 10,10 0 0 1 0.489893,0.036173 10,10 0 0 1 0.486792,0.059945 10,10 0 0 1 0.483691,0.084233 10,10 0 0 1 0.479041,0.107487 10,10 0 0 1 0.472839,0.1307413 10,10 0 0 1 0.466121,0.1539958 10,10 0 0 1 0.457854,0.1767334 10,10 0 0 1 0.449068,0.1989543 10,10 0 0 1 0.438216,0.2206583 10,10 0 0 1 0.426847,0.2418457 10,10 0 0 1 0.414962,0.2625163 10,10 0 0 1 0.401009,0.2826701 10,10 0 0 1 0.387057,0.3017904 10,10 0 0 1 0.371553,0.3209106 10,10 0 0 1 0.355534,0.3384806 10,10 0 0 1 0.338481,0.3555339 10,10 0 0 1 0.32091,0.3715535 10,10 0 0 1 0.301791,0.3870565 10,10 0 0 1 0.28267,0.4010091 10,10 0 0 1 0.262516,0.414445 10,10 0 0 1 0.241846,0.4273641 10,10 0 0 1 0.220658,0.4382162 10,10 0 0 1 0.198954,0.4490682 10,10 0 0 1 0.176734,0.4578531 10,10 0 0 1 0.153996,0.466121 10,10 0 0 1 0.130741,0.47284 10,10 0 0 1 0.107487,0.47904 10,10 0 0 1 0.08423,0.483692 10,10 0 0 1 0.05994,0.486792 10,10 0 0 1 0.03617,0.489376 10,10 0 0 1 5.16e-4,0.01343 10,10 0 0 1 5.17e-4,0.01292 10,10 0 0 1 0.001,0.01344 10,10 0 0 1 5.16e-4,0.01344 10,10 0 0 1 5.17e-4,0.01292 10,10 0 0 1 5.17e-4,0.01344 10,10 0 0 1 5.17e-4,0.01344 10,10 0 0 1 5.17e-4,0.01292 10,10 0 0 1 5.16e-4,0.01344 10,10 0 0 1 5.17e-4,0.01344 10,10 0 0 1 5.17e-4,0.01292 10,10 0 0 1 5.17e-4,0.01344 10,10 0 0 0 0,5.17e-4 10,10 0 0 0 0,5.16e-4 10,10 0 0 0 0,5.17e-4 10,10 0 0 0 0,5.17e-4 10,10 0 0 0 0,5.17e-4 10,10 0 0 0 0,5.17e-4 10,10 0 0 0 0,5.16e-4 10,10 0 0 0 0,5.17e-4 10,10 0 0 0 0,5.17e-4 10,10 0 0 0 0,5.17e-4 10,10 0 0 0 0,5.16e-4 10,10 0 0 0 0,5.17e-4 10,10 0 0 0 0,5.17e-4 10,10 0 0 0 0,5.17e-4 10,10 0 0 0 0,5.16e-4 10,10 0 0 0 0,5.17e-4 10,10 0 0 0 0,5.17e-4 10,10 0 0 0 0,5.17e-4 10,10 0 0 0 0,5.16e-4 10,10 0 0 0 0,5.17e-4 10,10 0 0 0 0,5.17e-4 10,10 0 0 0 0,5.17e-4 10,10 0 0 0 0,5.17e-4 10,10 0 0 0 0,5.16e-4 10,10 0 0 0 0,5.17e-4 10,10 0 0 0 0,5.17e-4 10,10 0 0 1 5.16e-4,0.01292 10,10 0 0 1 5.17e-4,0.01344 10,10 0 0 1 5.17e-4,0.01344 10,10 0 0 0 0,5.16e-4 10,10 0 0 0 0,5.17e-4 10,10 0 0 0 0,5.17e-4 10,10 0 0 0 0,5.17e-4 10,10 0 0 0 0,5.17e-4 10,10 0 0 0 0,5.16e-4 10,10 0 0 0 0,5.17e-4 10,10 0 0 0 0,5.17e-4 10,10 0 0 0 0,5.17e-4 10,10 0 0 0 0,5.16e-4 10,10 0 0 0 0,5.17e-4 10,10 0 0 0 0,5.17e-4 10,10 0 0 0 0,5.17e-4 10,10 0 0 0 0,5.16e-4 10,10 0 0 0 0,5.17e-4 10,10 0 0 0 0,5.17e-4 10,10 0 0 0 0,5.17e-4 10,10 0 0 0 0,5.16e-4 10,10 0 0 0 0,5.17e-4 10,10 0 0 0 0,5.17e-4 10,10 0 0 0 0,5.17e-4 10,10 0 0 0 0,5.17e-4 10,10 0 0 0 0,5.16e-4 10,10 0 0 0 0,5.17e-4 10,10 0 0 0 0,5.17e-4 10,10 0 0 1 5.17e-4,0.01344 10,10 0 0 1 5.16e-4,0.01344 10,10 0 0 0 0,5.16e-4 10,10 0 0 0 0,5.17e-4 10,10 0 0 0 0,5.17e-4 10,10 0 0 0 0,5.17e-4 10,10 0 0 0 0,5.16e-4 10,10 0 0 0 0,5.17e-4 10,10 0 0 0 0,5.17e-4 10,10 0 0 0 0,5.17e-4 10,10 0 0 0 0,5.16e-4 10,10 0 0 0 0,5.17e-4 10,10 0 0 0 0,5.17e-4 10,10 0 0 0 0,5.17e-4 10,10 0 0 0 0,5.16e-4 10,10 0 0 0 0,5.17e-4 10,10 0 0 0 0,5.17e-4 10,10 0 0 0 0,5.17e-4 10,10 0 0 0 0,5.17e-4 10,10 0 0 0 0,5.16e-4 10,10 0 0 0 0,5.17e-4 10,10 0 0 0 0,5.17e-4 10,10 0 0 0 0,5.17e-4 10,10 0 0 0 0,5.16e-4 10,10 0 0 0 0,5.17e-4 10,10 0 0 0 0,5.17e-4 10,10 0 0 0 0,5.17e-4 10,10 0 0 1 5.17e-4,0.01344 10,10 0 0 0 0,5.16e-4 10,10 0 0 0 0,5.17e-4 10,10 0 0 0 0,5.17e-4 10,10 0 0 0 0,5.17e-4 10,10 0 0 0 0,5.16e-4 10,10 0 0 0 0,5.17e-4 10,10 0 0 0 0,5.17e-4 10,10 0 0 0 0,5.17e-4 10,10 0 0 0 0,5.16e-4 10,10 0 0 0 0,5.17e-4 10,10 0 0 0 0,5.17e-4 10,10 0 0 0 0,5.17e-4 10,10 0 0 0 0,5.16e-4 10,10 0 0 0 0,5.17e-4 10,10 0 0 0 0,5.17e-4 10,10 0 0 0 0,5.17e-4 10,10 0 0 0 0,5.17e-4 10,10 0 0 0 0,5.16e-4 10,10 0 0 0 0,5.17e-4 10,10 0 0 0 0,5.17e-4 10,10 0 0 0 0,5.17e-4 10,10 0 0 0 0,5.16e-4 10,10 0 0 0 0,5.17e-4 10,10 0 0 0 0,5.17e-4 10,10 0 0 0 0,5.17e-4 10,10 0 0 0 0,5.16e-4 10,10 0 0 1 5.17e-4,0.01292 10,10 0 0 0 0,5.16e-4 10,10 0 0 0 0,5.17e-4 10,10 0 0 0 0,5.17e-4 10,10 0 0 0 0,5.17e-4 10,10 0 0 0 0,5.16e-4 10,10 0 0 0 0,5.17e-4 10,10 0 0 0 0,5.17e-4 10,10 0 0 0 0,5.17e-4 10,10 0 0 0 0,5.16e-4 10,10 0 0 0 0,5.17e-4 10,10 0 0 0 0,5.17e-4 10,10 0 0 0 0,5.17e-4 10,10 0 0 0 0,5.16e-4 10,10 0 0 0 0,5.17e-4 10,10 0 0 0 0,5.17e-4 10,10 0 0 0 0,5.17e-4 10,10 0 0 0 0,5.17e-4 10,10 0 0 0 0,5.16e-4 10,10 0 0 0 0,5.17e-4 10,10 0 0 0 0,5.17e-4 10,10 0 0 0 0,5.17e-4 10,10 0 0 0 0,5.16e-4 10,10 0 0 0 0,5.17e-4 10,10 0 0 0 0,5.17e-4 10,10 0 0 0 0,5.17e-4 10,10 0 0 0 0,5.16e-4 10,10 0 0 1 5.17e-4,0.01344 10,10 0 0 0 0,5.17e-4 10,10 0 0 0 0,5.17e-4 10,10 0 0 0 0,5.17e-4 10,10 0 0 0 0,5.16e-4 10,10 0 0 0 0,5.17e-4 10,10 0 0 0 0,5.17e-4 10,10 0 0 0 0,5.17e-4 10,10 0 0 0 0,5.16e-4 10,10 0 0 0 0,5.17e-4 10,10 0 0 0 0,5.17e-4 10,10 0 0 0 0,5.17e-4 10,10 0 0 0 0,5.16e-4 10,10 0 0 0 0,5.17e-4 10,10 0 0 0 0,5.17e-4 10,10 0 0 0 0,5.17e-4 10,10 0 0 0 0,5.16e-4 10,10 0 0 0 0,5.17e-4 10,10 0 0 0 0,5.17e-4 10,10 0 0 0 0,5.17e-4 10,10 0 0 0 0,5.17e-4 10,10 0 0 0 0,5.16e-4 10,10 0 0 0 0,5.17e-4 10,10 0 0 0 0,5.17e-4 10,10 0 0 0 0,5.17e-4 10,10 0 0 0 0,5.16e-4 10,10 0 0 0 0,5.17e-4 10,10 0 0 0 0,5.17e-4 10,10 0 0 0 0,5.17e-4 10,10 0 0 0 0,5.16e-4 10,10 0 0 0 0,5.17e-4 10,10 0 0 0 0,5.17e-4 10,10 0 0 0 0,5.17e-4 10,10 0 0 0 0,5.16e-4 10,10 0 0 0 0,5.17e-4 10,10 0 0 0 0,5.17e-4 10,10 0 0 0 0,5.17e-4 10,10 0 0 0 0,5.17e-4 10,10 0 0 0 0,5.16e-4 10,10 0 0 0 0,5.17e-4 10,10 0 0 0 0,5.17e-4 10,10 0 0 0 0,5.17e-4 10,10 0 0 0 0,5.16e-4 10,10 0 0 0 0,5.17e-4 10,10 0 0 0 0,5.17e-4 10,10 0 0 0 0,5.17e-4 10,10 0 0 0 0,5.16e-4 10,10 0 0 0 0,5.17e-4 10,10 0 0 0 0,5.17e-4 10,10 0 0 0 0,5.17e-4 10,10 0 0 0 0,5.16e-4 10,10 0 0 0 0,5.17e-4 10,10 0 0 1 5.16e-4,0.01344 10,10 0 0 0 0,5.17e-4 10,10 0 0 0 0,5.17e-4 10,10 0 0 0 0,5.16e-4 10,10 0 0 0 0,5.17e-4 10,10 0 0 0 0,5.17e-4 10,10 0 0 0 0,5.17e-4 10,10 0 0 0 0,5.16e-4 10,10 0 0 0 0,5.17e-4 10,10 0 0 0 0,5.17e-4 10,10 0 0 0 0,5.17e-4 10,10 0 0 0 0,5.17e-4 10,10 0 0 0 0,5.16e-4 10,10 0 0 0 0,5.17e-4 10,10 0 0 0 0,5.17e-4 10,10 0 0 0 0,5.17e-4 10,10 0 0 0 0,5.16e-4 10,10 0 0 0 0,5.17e-4 10,10 0 0 0 0,5.17e-4 10,10 0 0 0 0,5.17e-4 10,10 0 0 0 0,5.16e-4 10,10 0 0 0 0,5.17e-4 10,10 0 0 0 0,5.17e-4 10,10 0 0 0 0,5.17e-4 10,10 0 0 0 0,5.16e-4 10,10 0 0 0 0,5.17e-4 10,10 0 0 0 0,5.17e-4 10,10 0 0 0 0,5.17e-4 10,10 0 0 0 0,5.17e-4 10,10 0 0 0 0,5.16e-4 10,10 0 0 0 0,5.17e-4 10,10 0 0 0 0,5.17e-4 10,10 0 0 0 0,5.17e-4 10,10 0 0 0 0,5.16e-4 10,10 0 0 0 0,5.17e-4 10,10 0 0 0 0,5.17e-4 10,10 0 0 0 0,5.17e-4 10,10 0 0 0 0,5.16e-4 10,10 0 0 0 0,5.17e-4 10,10 0 0 0 0,5.17e-4 10,10 0 0 0 0,5.17e-4 10,10 0 0 0 0,5.16e-4 10,10 0 0 0 0,5.17e-4 10,10 0 0 0 0,5.17e-4 10,10 0 0 0 0,5.17e-4 10,10 0 0 0 0,5.17e-4 10,10 0 0 0 0,5.16e-4 10,10 0 0 0 0,5.17e-4 10,10 0 0 0 0,5.17e-4 10,10 0 0 0 0,5.17e-4 10,10 0 0 0 0,5.16e-4 10,10 0 0 0 0,5.17e-4 10,10 0 0 0 0,5.17e-4 10,10 0 0 0 0,5.17e-4 10,10 0 0 0 0,5.16e-4 10,10 0 0 0 0,5.17e-4 10,10 0 0 0 0,5.17e-4 10,10 0 0 0 0,5.17e-4 10,10 0 0 0 0,5.16e-4 10,10 0 0 0 0,5.17e-4 10,10 0 0 0 0,5.17e-4 10,10 0 0 0 0,5.17e-4 10,10 0 0 0 0,5.16e-4 10,10 0 0 0 0,5.17e-4 10,10 0 0 0 0,5.17e-4 10,10 0 0 0 0,5.17e-4 10,10 0 0 0 0,5.17e-4 10,10 0 0 0 0,5.16e-4 10,10 0 0 0 0,5.17e-4 10,10 0 0 0 0,5.17e-4 10,10 0 0 0 0,5.17e-4 10,10 0 0 0 0,5.16e-4 10,10 0 0 0 0,5.17e-4 10,10 0 0 0 0,5.17e-4 10,10 0 0 0 0,5.17e-4 10,10 0 0 0 0,5.16e-4 10,10 0 0 0 0,5.17e-4 10,10 0 0 0 0,5.17e-4 10,10 0 0 1 5.17e-4,0.01344 10,10 0 0 0 0,5.17e-4 10,10 0 0 0 0,5.16e-4 10,10 0 0 0 0,5.17e-4 10,10 0 0 0 0,5.17e-4 10,10 0 0 0 0,5.17e-4 10,10 0 0 0 0,5.16e-4 10,10 0 0 0 0,5.17e-4 10,10 0 0 0 0,5.17e-4 10,10 0 0 0 0,5.17e-4 10,10 0 0 0 0,5.16e-4 10,10 0 0 0 0,5.17e-4 10,10 0 0 0 0,5.17e-4 10,10 0 0 0 0,5.17e-4 10,10 0 0 0 0,5.17e-4 10,10 0 0 0 0,5.16e-4 10,10 0 0 0 0,5.17e-4 10,10 0 0 0 0,5.17e-4 10,10 0 0 0 0,5.17e-4 10,10 0 0 0 0,5.16e-4 10,10 0 0 0 0,5.17e-4 10,10 0 0 0 0,5.17e-4 10,10 0 0 0 0,5.17e-4 10,10 0 0 0 0,5.16e-4 10,10 0 0 0 0,5.17e-4 10,10 0 0 0 0,5.17e-4 10,10 0 0 0 0,5.17e-4 10,10 0 0 0 0,5.16e-4 10,10 0 0 0 0,5.17e-4 10,10 0 0 0 0,5.17e-4 10,10 0 0 0 0,5.17e-4 10,10 0 0 0 0,5.17e-4 10,10 0 0 0 0,5.16e-4 10,10 0 0 0 0,5.17e-4 10,10 0 0 0 0,5.17e-4 10,10 0 0 0 0,5.17e-4 10,10 0 0 0 0,5.16e-4 10,10 0 0 0 0,5.17e-4 10,10 0 0 0 0,5.17e-4 10,10 0 0 0 0,5.17e-4 10,10 0 0 0 0,5.16e-4 10,10 0 0 0 0,5.17e-4 10,10 0 0 0 0,5.17e-4 10,10 0 0 0 0,5.17e-4 10,10 0 0 0 0,5.16e-4 10,10 0 0 0 0,5.17e-4 10,10 0 0 0 0,5.17e-4 10,10 0 0 0 0,5.17e-4 10,10 0 0 0 0,5.17e-4 10,10 0 0 0 0,5.16e-4 10,10 0 0 0 0,5.17e-4 10,10 0 0 0 0,5.17e-4 10,10 0 0 0 0,5.17e-4 10,10 0 0 0 0,5.16e-4 10,10 0 0 0 0,5.17e-4 10,10 0 0 0 0,5.17e-4 10,10 0 0 0 0,5.17e-4 10,10 0 0 0 0,5.16e-4 10,10 0 0 0 0,5.17e-4 10,10 0 0 0 0,5.17e-4 10,10 0 0 0 0,5.17e-4 10,10 0 0 0 0,5.16e-4 10,10 0 0 0 0,5.17e-4 10,10 0 0 0 0,5.17e-4 10,10 0 0 0 0,5.17e-4 10,10 0 0 0 0,5.17e-4 10,10 0 0 0 0,5.16e-4 10,10 0 0 0 0,5.17e-4 10,10 0 0 0 0,5.17e-4 10,10 0 0 0 0,5.17e-4 10,10 0 0 0 0,5.16e-4 10,10 0 0 0 0,5.17e-4 10,10 0 0 0 0,5.17e-4 10,10 0 0 0 0,5.17e-4 10,10 0 0 0 0,5.16e-4 10,10 0 0 0 0,5.17e-4 10,10 0 0 0 0,5.17e-4 10,10 0 0 0 0,5.17e-4 10,10 0 0 0 0,5.16e-4 10,10 0 0 0 0,5.17e-4 10,10 0 0 0 0,5.17e-4 10,10 0 0 0 0,5.17e-4 10,10 0 0 0 0,5.17e-4 10,10 0 0 0 0,5.16e-4 10,10 0 0 0 0,5.17e-4 10,10 0 0 0 0,5.17e-4 10,10 0 0 0 0,5.17e-4 10,10 0 0 0 0,5.16e-4 10,10 0 0 0 0,5.17e-4 10,10 0 0 0 0,5.17e-4 10,10 0 0 0 0,5.17e-4 10,10 0 0 0 0,5.16e-4 10,10 0 0 0 0,5.17e-4 10,10 0 0 0 0,5.17e-4 10,10 0 0 0 0,5.17e-4 10,10 0 0 0 0,5.16e-4 10,10 0 0 0 0,5.17e-4 10,10 0 0 0 0,5.17e-4 10,10 0 0 0 0,5.17e-4 10,10 0 0 0 0,5.17e-4 10,10 0 0 0 0,5.16e-4 10,10 0 0 0 0,5.17e-4 10,10 0 0 0 0,5.17e-4 10,10 0 0 0 0,5.17e-4 10,10 0 0 0 0,5.16e-4 10,10 0 0 0 0,5.17e-4 10,10 0 0 0 0,5.17e-4 10,10 0 0 0 0,5.17e-4 10,10 0 0 0 0,5.16e-4 10,10 0 0 0 0,5.17e-4 10,10 0 0 0 0,5.17e-4 10,10 0 0 0 0,5.17e-4 10,10 0 0 0 0,5.16e-4 10,10 0 0 0 0,5.17e-4 10,10 0 0 0 0,5.17e-4 10,10 0 0 0 0,5.17e-4 10,10 0 0 0 0,5.16e-4 10,10 0 0 0 0,5.17e-4 10,10 0 0 0 0,5.17e-4 10,10 0 0 0 0,5.17e-4 10,10 0 0 0 0,5.17e-4 10,10 0 0 0 0,5.16e-4 10,10 0 0 0 0,5.17e-4 10,10 0 0 0 0,5.17e-4 10,10 0 0 0 0,5.17e-4 10,10 0 0 0 0,5.16e-4 10,10 0 0 0 0,5.17e-4 10,10 0 0 0 0,5.17e-4 10,10 0 0 0 0,5.17e-4 10,10 0 0 1 -0.101802,1.423169 10,10 0 0 1 -0.303341,1.39423 10,10 0 0 1 -0.498678,1.336869 10,10 0 0 1 -0.683679,1.25212 10,10 0 0 1 -0.855245,1.142049 10,10 0 0 1 -1.008724,1.009241 10,10 0 0 1 -1.142049,0.854728 10,10 0 0 1 -1.25212,0.683679 10,10 0 0 1 -1.336869,0.498678 10,10 0 0 1 -1.39423,0.303341 10,10 0 0 1 -1.249536,0.0894 h 9.82679 V 3.2287435 Z"
       style="fill:#4ce0b3;stroke:#9dd3a6;stroke-width:0.7"
       id="path21" />
    <path
       d="m 13.288078,6.6807292 a 0.06198348,0.06198348 0 0 0 -0.03101,0.00827 0.06198348,0.06198348 0 0 0 -0.02274,0.022738 0.06198348,0.06198348 0 0 0 -0.0083,0.031006 v 1.9430338 a 4.5654321,4.5370984 0 0 1 0.223759,0.00568 4.5654321,4.5370984 0 0 1 0.223759,0.01602 4.5654321,4.5370984 0 0 1 0.222209,0.027389 4.5654321,4.5370984 0 0 1 0.221175,0.03824 4.5654321,4.5370984 0 0 1 0.218591,0.048576 4.5654321,4.5370984 0 0 1 0.216008,0.059428 4.5654321,4.5370984 0 0 1 0.21239,0.069763 4.5654321,4.5370984 0 0 1 0.209289,0.080615 4.5654321,4.5370984 0 0 1 0.204639,0.089917 4.5654321,4.5370984 0 0 1 0.200504,0.1002522 4.5654321,4.5370984 0 0 1 0.194821,0.1095541 4.5654321,4.5370984 0 0 1 0.189135,0.1193725 4.5654321,4.5370984 0 0 1 0.183452,0.1281576 4.5654321,4.5370984 0 0 1 0.176733,0.1369425 4.5654321,4.5370984 0 0 1 0.169499,0.1457276 4.5654321,4.5370984 0 0 1 0.162264,0.1534794 4.5654321,4.5370984 0 0 1 0.154512,0.16123 4.5654321,4.5370984 0 0 1 0.146245,0.168465 4.5654321,4.5370984 0 0 1 0.137976,0.1757 4.5654321,4.5370984 0 0 1 0.129191,0.181901 4.5654321,4.5370984 0 0 1 0.119889,0.188102 4.5654321,4.5370984 0 0 1 0.110071,0.193787 4.5654321,4.5370984 0 0 1 0.100769,0.198954 4.5654321,4.5370984 0 0 1 0.09095,0.203605 4.5654321,4.5370984 0 0 1 0.08062,0.20774 4.5654321,4.5370984 0 0 1 0.07028,0.211356 4.5654321,4.5370984 0 0 1 0.05994,0.214974 4.5654321,4.5370984 0 0 1 0.04909,0.217041 4.5654321,4.5370984 0 0 1 0.03824,0.219625 4.5654321,4.5370984 0 0 1 0.02739,0.220658 4.5654321,4.5370984 0 0 1 0.01654,0.222209 4.5654321,4.5370984 0 0 1 0.0057,0.222725 4.5654321,4.5370984 0 0 1 -0.04651,0.645956 4.5654321,4.5370984 0 0 1 -0.138493,0.632519 4.5654321,4.5370984 0 0 1 -0.227893,0.606165 4.5654321,4.5370984 0 0 1 -0.312125,0.568441 4.5654321,4.5370984 0 0 1 -0.390158,0.518314 4.5654321,4.5370984 0 0 1 -0.460953,0.457337 4.5654321,4.5370984 0 0 1 -0.521416,0.38809 4.5654321,4.5370984 0 0 1 -0.571541,0.310058 4.5654321,4.5370984 0 0 1 -0.610299,0.226343 4.5654321,4.5370984 0 0 1 -0.636653,0.137459 4.5654321,4.5370984 0 0 1 -0.649573,0.04651 v 2.012281 h 7.488949 a 0.06841478,0.06841478 0 0 0 0.04806,-0.02015 0.06841478,0.06841478 0 0 0 0.02015,-0.04806 V 6.782015 a 0.10144149,0.10144149 0 0 0 0,-0.00413 0.10144149,0.10144149 0 0 0 0,-0.00413 0.10144149,0.10144149 0 0 0 -5.17e-4,-0.00362 0.10144149,0.10144149 0 0 0 -5.17e-4,-0.00413 0.10144149,0.10144149 0 0 0 -0.0036,-0.015503 0.10144149,0.10144149 0 0 0 -0.0062,-0.014469 0.10144149,0.10144149 0 0 0 -0.0083,-0.013953 0.10144149,0.10144149 0 0 0 -0.01033,-0.011886 0.10144149,0.10144149 0 0 0 -0.07183,-0.029456 z"
       style="fill:#4ce0b3;stroke:#9dd3a6;stroke-width:0.7"
       id="path12" />
    <path
       d="M 13.226066,8.6857747 H 8.6537354 V 17.759123 H 13.211597 A 4.5654321,4.5370984 0 0 1 12.576493,17.713647 4.5654321,4.5370984 0 0 1 11.93984,17.576188 4.5654321,4.5370984 0 0 1 11.329541,17.349845 4.5654321,4.5370984 0 0 1 10.758,17.039787 4.5654321,4.5370984 0 0 1 10.236584,16.651697 4.5654321,4.5370984 0 0 1 9.7756307,16.19436 4.5654321,4.5370984 0 0 1 9.3854736,15.676046 4.5654321,4.5370984 0 0 1 9.073348,15.107605 4.5654321,4.5370984 0 0 1 8.8454549,14.50144 4.5654321,4.5370984 0 0 1 8.7069621,13.868921 4.5654321,4.5370984 0 0 1 8.6604533,13.222965 4.5654321,4.5370984 0 0 1 8.7069621,12.577527 4.5654321,4.5370984 0 0 1 8.8454549,11.944491 4.5654321,4.5370984 0 0 1 9.073348,11.338326 4.5654321,4.5370984 0 0 1 9.3854736,10.769885 4.5654321,4.5370984 0 0 1 9.7756307,10.251571 4.5654321,4.5370984 0 0 1 10.236584,9.7942342 4.5654321,4.5370984 0 0 1 10.758,9.4061442 4.5654321,4.5370984 0 0 1 11.329541,9.0960856 4.5654321,4.5370984 0 0 1 11.93984,8.8697428 4.5654321,4.5370984 0 0 1 12.576493,8.7322835 4.5654321,4.5370984 0 0 1 13.226066,8.6857747 Z"
       style="fill:#4ce0b3;stroke:#9dd3a6;stroke-width:0.7"
       id="path19" />
  </g>
</svg>
